<?xml version="1.0" encoding="utf-8" standalone="yes"?>
<!DOCTYPE svg PUBLIC "-//W3C//DTD SVG 1.1//EN" "http://www.w3.org/Graphics/SVG/1.1/DTD/svg11.dtd">
<svg xmlns="http://www.w3.org/2000/svg" xmlns:xlink="http://www.w3.org/1999/xlink" xmlns:dc="http://purl.org/dc/elements/1.1/" xmlns:cc="http://web.resource.org/cc/" xmlns:rdf="http://www.w3.org/1999/02/22-rdf-syntax-ns#" xmlns:sodipodi="http://sodipodi.sourceforge.net/DTD/sodipodi-0.dtd" xmlns:inkscape="http://www.inkscape.org/namespaces/inkscape" id="svg_document" style="zoom: 1;" version="1.1" width="250px" preserveAspectRatio="xMidYMid meet" visibility="visible" height="250px" cursor="default" viewBox="0 0 250 250" baseProfile="full"><!-- Created with macSVG - https://macsvg.org/ - https://github.com/dsward2/macsvg/ --><title id="svg_document_title">Untitled.svg</title><defs id="svg_document_defs"></defs><g id="main_group"><rect x="-0.5px" height="250px" y="0px" id="background_rect" width="300px" fill="#90ee90" visibility="hidden"></rect><line stroke="#000000" y1="195px" id="line11" x1="93px" stroke-width="2px" y2="206px" x2="39px" transform=""></line></g><polyline points="131,26 49,60 39,111 14,140 40,207 177,223 233,159 196,59 131,25 " stroke="#000000" id="polyline1" stroke-width="5px" fill="none" transform=""></polyline><line stroke="#000000" y1="111px" id="line4" x1="41px" stroke-width="2px" y2="145px" x2="81px" transform=""></line><line stroke="#000000" y1="94px" id="line7" x1="169px" stroke-width="2px" y2="154px" x2="179px" transform=""></line><line stroke="#000000" y1="159px" id="line8" x1="233px" stroke-width="2px" y2="153px" x2="179px" transform=""></line><line stroke="#000000" y1="140px" id="line9" x1="15px" stroke-width="2px" y2="195px" x2="91px" transform=""></line><line stroke="#000000" y1="60px" id="line1" stroke-width="2px" x1="50px" y2="91px" x2="116px" transform=""></line><line stroke="#000000" y1="59px" id="line2" x1="196px" stroke-width="2px" y2="94px" x2="168px" transform=""></line><line stroke="#000000" y1="94px" id="line3" x1="169px" stroke-width="2px" y2="91px" x2="116px" transform=""></line><line stroke="#000000" y1="195px" id="line10" x1="92px" stroke-width="2px" y2="222px" x2="179px" transform=""></line><line stroke="#000000" y1="144.5px" id="line6" x1="80.5px" stroke-width="2px" y2="153px" x2="179px" transform=""></line><line stroke="#000000" y1="144.5px" id="line5" x1="80.5px" stroke-width="2px" y2="91px" x2="116.5px" transform=""></line></svg>